<?xml version="1.0" standalone="no"?><!DOCTYPE svg PUBLIC "-//W3C//DTD SVG 1.1//EN" "http://www.w3.org/Graphics/SVG/1.1/DTD/svg11.dtd"><svg t="1760954197813" class="icon" viewBox="0 0 1024 1024" version="1.1" xmlns="http://www.w3.org/2000/svg" p-id="17457" xmlns:xlink="http://www.w3.org/1999/xlink" width="200" height="200"><path d="M236.8 683.2a43.2 43.2 0 0 0 28.8 11.2 46.4 46.4 0 0 0 28.8-11.2l160-161.6a40 40 0 0 0 0-57.6l-160-163.2a41.6 41.6 0 0 0-57.6 1.6 40 40 0 0 0 0 57.6l131.2 132.8-131.2 131.2a43.2 43.2 0 0 0 0 59.2z m204.8-30.4a41.6 41.6 0 0 0 40 41.6h227.2a41.6 41.6 0 1 0 0-81.6H481.6a40 40 0 0 0-40 40z" p-id="17458"></path></svg>